<svg id="visual" viewBox="0 0 1920 1080" width="1920" height="1080" xmlns="http://www.w3.org/2000/svg" xmlns:xlink="http://www.w3.org/1999/xlink" version="1.1"><path d="M0 120L80 127.2C160 134.3 320 148.7 480 173.8C640 199 800 235 960 260.2C1120 285.3 1280 299.7 1440 294.3C1600 289 1760 264 1840 251.5L1920 239L1920 0L1840 0C1760 0 1600 0 1440 0C1280 0 1120 0 960 0C800 0 640 0 480 0C320 0 160 0 80 0L0 0Z" fill="#5fd7ca"></path><path d="M0 325L80 321.3C160 317.7 320 310.3 480 321.2C640 332 800 361 960 386.3C1120 411.7 1280 433.3 1440 442.3C1600 451.3 1760 447.7 1840 445.8L1920 444L1920 237L1840 249.5C1760 262 1600 287 1440 292.3C1280 297.7 1120 283.3 960 258.2C800 233 640 197 480 171.8C320 146.7 160 132.3 80 125.2L0 118Z" fill="#41cebf"></path><path d="M0 519L80 529.8C160 540.7 320 562.3 480 591.2C640 620 800 656 960 677.7C1120 699.3 1280 706.7 1440 706.7C1600 706.7 1760 699.3 1840 695.7L1920 692L1920 442L1840 443.8C1760 445.7 1600 449.3 1440 440.3C1280 431.3 1120 409.7 960 384.3C800 359 640 330 480 319.2C320 308.3 160 315.7 80 319.3L0 323Z" fill="#0ac5b3"></path><path d="M0 703L80 710.2C160 717.3 320 731.7 480 744.3C640 757 800 768 960 777C1120 786 1280 793 1440 809.2C1600 825.3 1760 850.7 1840 863.3L1920 876L1920 690L1840 693.7C1760 697.3 1600 704.7 1440 704.7C1280 704.7 1120 697.3 960 675.7C800 654 640 618 480 589.2C320 560.3 160 538.7 80 527.8L0 517Z" fill="#06aa9b"></path><path d="M0 1081L80 1081C160 1081 320 1081 480 1081C640 1081 800 1081 960 1081C1120 1081 1280 1081 1440 1081C1600 1081 1760 1081 1840 1081L1920 1081L1920 874L1840 861.3C1760 848.7 1600 823.3 1440 807.2C1280 791 1120 784 960 775C800 766 640 755 480 742.3C320 729.7 160 715.3 80 708.2L0 701Z" fill="#049084"></path></svg>