<svg id="visual" viewBox="0 0 1920 1080" width="1920" height="1080" xmlns="http://www.w3.org/2000/svg" xmlns:xlink="http://www.w3.org/1999/xlink" version="1.1"><path d="M0 712L29.2 724C58.3 736 116.7 760 174.8 775.2C233 790.3 291 796.7 349.2 790C407.3 783.3 465.7 763.7 523.8 760.7C582 757.7 640 771.3 698.2 771.8C756.3 772.3 814.7 759.7 872.8 760.7C931 761.7 989 776.3 1047.2 784.5C1105.3 792.7 1163.7 794.3 1221.8 786.3C1280 778.3 1338 760.7 1396.2 759.5C1454.3 758.3 1512.7 773.7 1570.8 774.5C1629 775.3 1687 761.7 1745.2 753C1803.3 744.3 1861.7 740.7 1890.8 738.8L1920 737L1920 1081L1890.8 1081C1861.7 1081 1803.3 1081 1745.2 1081C1687 1081 1629 1081 1570.8 1081C1512.7 1081 1454.3 1081 1396.2 1081C1338 1081 1280 1081 1221.8 1081C1163.7 1081 1105.3 1081 1047.2 1081C989 1081 931 1081 872.8 1081C814.7 1081 756.3 1081 698.2 1081C640 1081 582 1081 523.8 1081C465.7 1081 407.3 1081 349.2 1081C291 1081 233 1081 174.8 1081C116.7 1081 58.3 1081 29.2 1081L0 1081Z" fill="#48ead7"></path><path d="M0 845L29.2 846.5C58.3 848 116.7 851 174.8 857.5C233 864 291 874 349.2 867C407.3 860 465.7 836 523.8 824.3C582 812.7 640 813.3 698.2 822.5C756.3 831.7 814.7 849.3 872.8 855.5C931 861.7 989 856.3 1047.2 864C1105.3 871.7 1163.7 892.3 1221.8 891C1280 889.7 1338 866.3 1396.2 854.5C1454.3 842.7 1512.7 842.3 1570.8 836.8C1629 831.3 1687 820.7 1745.2 829.5C1803.3 838.3 1861.7 866.7 1890.8 880.8L1920 895L1920 1081L1890.8 1081C1861.7 1081 1803.3 1081 1745.2 1081C1687 1081 1629 1081 1570.8 1081C1512.7 1081 1454.3 1081 1396.2 1081C1338 1081 1280 1081 1221.8 1081C1163.7 1081 1105.3 1081 1047.2 1081C989 1081 931 1081 872.8 1081C814.7 1081 756.3 1081 698.2 1081C640 1081 582 1081 523.8 1081C465.7 1081 407.3 1081 349.2 1081C291 1081 233 1081 174.8 1081C116.7 1081 58.3 1081 29.2 1081L0 1081Z" fill="#2fc7b5"></path><path d="M0 924L29.2 929.2C58.3 934.3 116.7 944.7 174.8 958.8C233 973 291 991 349.2 989.7C407.3 988.3 465.7 967.7 523.8 958.7C582 949.7 640 952.3 698.2 955.7C756.3 959 814.7 963 872.8 958.2C931 953.3 989 939.7 1047.2 949.3C1105.3 959 1163.7 992 1221.8 992.7C1280 993.3 1338 961.7 1396.2 960.2C1454.3 958.7 1512.7 987.3 1570.8 985.3C1629 983.3 1687 950.7 1745.2 948.7C1803.3 946.7 1861.7 975.3 1890.8 989.7L1920 1004L1920 1081L1890.8 1081C1861.7 1081 1803.3 1081 1745.2 1081C1687 1081 1629 1081 1570.8 1081C1512.7 1081 1454.3 1081 1396.2 1081C1338 1081 1280 1081 1221.8 1081C1163.7 1081 1105.3 1081 1047.2 1081C989 1081 931 1081 872.8 1081C814.7 1081 756.3 1081 698.2 1081C640 1081 582 1081 523.8 1081C465.7 1081 407.3 1081 349.2 1081C291 1081 233 1081 174.8 1081C116.7 1081 58.3 1081 29.2 1081L0 1081Z" fill="#0fa594"></path></svg>